<svg width="23" height="23" viewBox="0 0 23 23" fill="none" xmlns="http://www.w3.org/2000/svg">
<path fill-rule="evenodd" clip-rule="evenodd" d="M15.8092 22.9189V14.0436H18.7886L19.2344 10.5851H15.808V8.37687C15.808 7.37531 16.0865 6.69232 17.5235 6.69232H19.3547V3.59827C18.4679 3.50389 17.5765 3.45799 16.6847 3.46076C14.0444 3.46076 12.2372 5.0731 12.2372 8.03308V10.5851H9.24862V14.0436H12.2361V22.9189H1.34618C0.647152 22.9189 0.0810547 22.3528 0.0810547 21.6538V1.26512C0.0810547 0.566097 0.647152 0 1.34618 0H21.7348C22.4339 0 23 0.566097 23 1.26512V21.6538C23 22.3528 22.4339 22.9189 21.7348 22.9189H15.8092Z" fill="#797E82"/>
</svg>
