<svg width="60" height="60" viewBox="0 0 60 60" fill="none" xmlns="http://www.w3.org/2000/svg">
<path d="M33 18H27V24H33V18Z" fill="white"/>
<path d="M39 6H33V12H39V6Z" fill="black"/>
<path d="M33 6H27V12H33V6Z" fill="black"/>
<path d="M45 12H39V18H45V12Z" fill="black"/>
<path d="M27 6H21V12H27V6Z" fill="black"/>
<path d="M21 12H15V18H21V12Z" fill="black"/>
<path d="M21 18H15V24H21V18Z" fill="black"/>
<path d="M21 24H15V30H21V24Z" fill="black"/>
<path d="M27 30H21V36H27V30Z" fill="black"/>
<path d="M33 36H27V42H33V36Z" fill="black"/>
<path d="M39 42H33V48H39V42Z" fill="black"/>
<path d="M45 48H39V54H45V48Z" fill="black"/>
<path d="M27 12H21V18H27V12Z" fill="#9D0000"/>
<path d="M33 12H27V18H33V12Z" fill="#FF0000"/>
<path d="M39 12H33V18H39V12Z" fill="#FF0000"/>
<path d="M27 18H21V24H27V18Z" fill="#9D0000"/>
<path d="M33 18H27V24H33V18Z" fill="#FF0000"/>
<path d="M39 18H33V24H39V18Z" fill="#FF0000"/>
<path d="M27 24H21V30H27V24Z" fill="#9D0000"/>
<path d="M33 24H27V30H33V24Z" fill="#FF0000"/>
<path d="M39 24H33V30H39V24Z" fill="#FF0000"/>
<path d="M33 30H27V36H33V30Z" fill="#9D0000"/>
<path d="M39 30H33V36H39V30Z" fill="#FF0000"/>
<path d="M39 36H33V42H39V36Z" fill="#9D0000"/>
<path d="M45 36H39V42H45V36Z" fill="#FF0000"/>
<path d="M45 42H39V48H45V42Z" fill="#9D0000"/>
<path d="M45 30H39V36H45V30Z" fill="#FF0000"/>
<path d="M45 24H39V30H45V24Z" fill="#FF0000"/>
<path d="M45 18H39V24H45V18Z" fill="#FF0000"/>
</svg>
