<svg width="23" height="23" viewBox="0 0 23 23" fill="none" xmlns="http://www.w3.org/2000/svg">
<path d="M9.74564 13.2544C10.2558 13.7396 10.2558 14.5359 9.74564 15.0212C9.26039 15.5064 8.46409 15.5064 7.97884 15.0212C6.81347 13.854 6.15892 12.2721 6.15892 10.6228C6.15892 8.9735 6.81347 7.3916 7.97884 6.22448L12.3834 1.81992C13.5505 0.65455 15.1324 0 16.7817 0C18.4311 0 20.013 0.65455 21.1801 1.81992C22.3455 2.98704 23 4.56894 23 6.21826C23 7.86758 22.3455 9.44948 21.1801 10.6166L19.3262 12.4705C19.3386 11.4502 19.1769 10.43 18.8285 9.45947L19.4133 8.86224C19.7621 8.5172 20.039 8.10641 20.228 7.65364C20.417 7.20087 20.5143 6.71511 20.5143 6.22448C20.5143 5.73385 20.417 5.2481 20.228 4.79532C20.039 4.34255 19.7621 3.93176 19.4133 3.58672C19.0682 3.23792 18.6574 2.96101 18.2047 2.77203C17.7519 2.58304 17.2661 2.48573 16.7755 2.48573C16.2849 2.48573 15.7991 2.58304 15.3464 2.77203C14.8936 2.96101 14.4828 3.23792 14.1378 3.58672L9.74564 7.97884C9.39684 8.32388 9.11993 8.73467 8.93095 9.18744C8.74196 9.64021 8.64465 10.126 8.64465 10.6166C8.64465 11.1072 8.74196 11.593 8.93095 12.0458C9.11993 12.4985 9.39684 12.9093 9.74564 13.2544ZM13.2544 7.97884C13.7396 7.49359 14.5359 7.49359 15.0212 7.97884C16.1865 9.14596 16.8411 10.7279 16.8411 12.3772C16.8411 14.0265 16.1865 15.6084 15.0212 16.7755L10.6166 21.1801C9.44948 22.3455 7.86758 23 6.21826 23C4.56894 23 2.98704 22.3455 1.81992 21.1801C0.65455 20.013 0 18.4311 0 16.7817C0 15.1324 0.65455 13.5505 1.81992 12.3834L3.67382 10.5295C3.66137 11.5498 3.82312 12.57 4.17151 13.553L3.58672 14.1378C3.23792 14.4828 2.96101 14.8936 2.77203 15.3464C2.58304 15.7991 2.48573 16.2849 2.48573 16.7755C2.48573 17.2661 2.58304 17.7519 2.77203 18.2047C2.96101 18.6574 3.23792 19.0682 3.58672 19.4133C3.93176 19.7621 4.34255 20.039 4.79532 20.228C5.2481 20.417 5.73385 20.5143 6.22448 20.5143C6.71511 20.5143 7.20087 20.417 7.65364 20.228C8.10641 20.039 8.5172 19.7621 8.86224 19.4133L13.2544 15.0212C13.6032 14.6761 13.8801 14.2653 14.0691 13.8126C14.258 13.3598 14.3553 12.874 14.3553 12.3834C14.3553 11.8928 14.258 11.407 14.0691 10.9542C13.8801 10.5015 13.6032 10.0907 13.2544 9.74564C13.1335 9.63241 13.0372 9.49558 12.9713 9.34364C12.9055 9.19169 12.8715 9.02784 12.8715 8.86224C12.8715 8.69664 12.9055 8.53279 12.9713 8.38084C13.0372 8.2289 13.1335 8.09207 13.2544 7.97884Z" fill="#797E82"/>
</svg>
