<svg width="23" height="23" viewBox="0 0 23 23" fill="none" xmlns="http://www.w3.org/2000/svg">
<path d="M20.4444 0C21.1222 0 21.7722 0.269245 22.2515 0.748505C22.7308 1.22776 23 1.87778 23 2.55556V20.4444C23 21.1222 22.7308 21.7722 22.2515 22.2515C21.7722 22.7308 21.1222 23 20.4444 23H2.55556C1.87778 23 1.22776 22.7308 0.748505 22.2515C0.269245 21.7722 0 21.1222 0 20.4444V2.55556C0 1.87778 0.269245 1.22776 0.748505 0.748505C1.22776 0.269245 1.87778 0 2.55556 0H20.4444ZM19.8056 19.8056V13.0333C19.8056 11.9286 19.3667 10.869 18.5855 10.0878C17.8043 9.30665 16.7448 8.86778 15.64 8.86778C14.5539 8.86778 13.2889 9.53222 12.6756 10.5289V9.11056H9.11056V19.8056H12.6756V13.5061C12.6756 12.5222 13.4678 11.7172 14.4517 11.7172C14.9261 11.7172 15.3811 11.9057 15.7166 12.2412C16.0521 12.5767 16.2406 13.0317 16.2406 13.5061V19.8056H19.8056ZM4.95778 7.10445C5.52711 7.10445 6.07312 6.87828 6.4757 6.4757C6.87828 6.07312 7.10445 5.52711 7.10445 4.95778C7.10445 3.76944 6.14611 2.79833 4.95778 2.79833C4.38506 2.79833 3.83579 3.02585 3.43082 3.43082C3.02585 3.83579 2.79833 4.38506 2.79833 4.95778C2.79833 6.14611 3.76944 7.10445 4.95778 7.10445ZM6.73389 19.8056V9.11056H3.19444V19.8056H6.73389Z" fill="#797E82"/>
</svg>
