<svg width="17" height="11" viewBox="0 0 17 11" fill="none" xmlns="http://www.w3.org/2000/svg">
<path fill-rule="evenodd" clip-rule="evenodd" d="M15.4762 0.508875H14.563C14.0587 0.508875 13.649 0.917723 13.6479 1.42206L13.6313 9.33637C13.6303 9.84071 14.0383 10.2496 14.5426 10.2496H15.4558C15.9601 10.2496 16.3698 9.84071 16.3709 9.33637L16.3875 1.42206C16.3885 0.917723 15.9805 0.508875 15.4762 0.508875ZM10.297 2.6398H11.2102C11.7146 2.6398 12.1225 3.04865 12.1215 3.55299L12.1094 9.33652C12.1083 9.84087 11.6986 10.2497 11.1943 10.2497H10.2811C9.77674 10.2497 9.36875 9.84087 9.36981 9.33652L9.38192 3.55299C9.38298 3.04865 9.79268 2.6398 10.297 2.6398ZM6.94412 4.77029H6.03093C5.52659 4.77029 5.11688 5.17913 5.11583 5.68347L5.10818 9.33623C5.10712 9.84057 5.51511 10.2494 6.01945 10.2494H6.93265C7.43699 10.2494 7.84669 9.84057 7.84775 9.33623L7.8554 5.68347C7.85646 5.17913 7.44846 4.77029 6.94412 4.77029ZM2.67881 6.59667H1.76562C1.26128 6.59667 0.85157 7.00552 0.850514 7.50986L0.846689 9.33624C0.845633 9.84058 1.25363 10.2494 1.75797 10.2494H2.67116C3.1755 10.2494 3.58521 9.84058 3.58626 9.33624L3.59009 7.50986C3.59114 7.00552 3.18315 6.59667 2.67881 6.59667Z" fill="white"/>
</svg>
