<svg width="23" height="18" viewBox="0 0 23 18" fill="none" xmlns="http://www.w3.org/2000/svg">
<path d="M23 2.11765C22.1534 2.48824 21.2409 2.73176 20.2954 2.84824C21.2629 2.28706 22.0105 1.39765 22.3623 0.328235C21.4498 0.857647 20.4383 1.22824 19.3719 1.44C18.5033 0.529412 17.283 0 15.8977 0C13.3141 0 11.2032 2.03294 11.2032 4.54235C11.2032 4.90235 11.2471 5.25177 11.3241 5.58C7.41013 5.38941 3.92495 3.57882 1.60516 0.836471C1.19837 1.50353 0.967495 2.28706 0.967495 3.11294C0.967495 4.69059 1.79207 6.08824 3.0674 6.88235C2.28681 6.88235 1.56119 6.67059 0.923518 6.35294V6.38471C0.923518 8.58706 2.55067 10.4294 4.70555 10.8424C4.01371 11.0247 3.28739 11.0501 2.58365 10.9165C2.88226 11.8191 3.46708 12.6089 4.2559 13.1749C5.04471 13.7408 5.99786 14.0545 6.98136 14.0718C5.31422 15.3428 3.2477 16.0299 1.12142 16.02C0.74761 16.02 0.373805 15.9988 0 15.9565C2.08891 17.2482 4.57361 18 7.23423 18C15.8977 18 20.6582 11.0753 20.6582 5.07176C20.6582 4.87059 20.6582 4.68 20.6472 4.47882C21.5707 3.84353 22.3623 3.03882 23 2.11765Z" fill="#797E82"/>
</svg>
