<svg width="15" height="11" viewBox="0 0 15 11" fill="none" xmlns="http://www.w3.org/2000/svg">
<path fill-rule="evenodd" clip-rule="evenodd" d="M7.95004 2.28178C9.97357 2.28187 11.9181 3.05939 13.3817 4.45365C13.4919 4.56129 13.6684 4.55993 13.7774 4.4506L14.8353 3.38522C14.8905 3.32977 14.9214 3.25465 14.9211 3.1765C14.9208 3.09835 14.8894 3.02361 14.8338 2.9688C10.9923 -0.720069 4.91975 -0.720069 1.06283 2.9688C1.00696 3.02356 0.975168 3.09829 0.97449 3.17644C0.973812 3.25459 1.00431 3.32973 1.05922 3.38522L2.11294 4.4506C2.22141 4.5601 2.39806 4.56146 2.50865 4.45365C3.9783 3.0593 5.92631 2.28177 7.95004 2.28178ZM7.94288 5.74781C9.05468 5.74774 10.1259 6.16099 10.9485 6.90726C11.0598 7.01317 11.2353 7.01088 11.3442 6.90208L12.4009 5.8367C12.4565 5.78081 12.4875 5.705 12.4869 5.62623C12.4862 5.54745 12.4541 5.47229 12.3975 5.41754C9.89277 3.08308 6.00629 3.08308 3.49177 5.41754C3.43496 5.47228 3.40246 5.54749 3.40155 5.62629C3.40064 5.70509 3.4314 5.78089 3.48693 5.8367L4.53883 6.90208C4.64726 7.01088 4.82284 7.01317 4.93453 6.90726C5.75968 6.16149 6.83182 5.74827 7.94288 5.74781ZM10.0502 8.08016C10.0516 8.15916 10.0204 8.23532 9.96389 8.29066L8.13609 10.1313C8.08251 10.1854 8.00955 10.2159 7.93349 10.2159C7.85743 10.2159 7.7846 10.1854 7.73124 10.1313L5.91085 8.29066C5.85461 8.23528 5.82376 8.15909 5.8256 8.08009C5.82744 8.0011 5.86179 7.92629 5.92055 7.87334C7.08745 6.88811 8.79347 6.88811 9.95624 7.87334C10.0147 7.92633 10.0487 8.00116 10.0502 8.08016Z" fill="white"/>
</svg>
