<svg width="296" height="123" viewBox="0 0 296 123" fill="none" xmlns="http://www.w3.org/2000/svg">
<path d="M6.94398 18.376C8.69332 14.408 11.9787 12.424 16.8 12.424V19.912C14.1547 19.7413 11.8507 20.3813 9.88798 21.832C7.92532 23.24 6.94398 25.5866 6.94398 28.872V45H0.0319824V13H6.94398V18.376Z" fill="#141414"/>
<path d="M25.847 31.944C26.359 34.376 27.5323 36.2533 29.367 37.576C31.2017 38.856 33.4416 39.496 36.087 39.496C39.7563 39.496 42.5083 38.1733 44.343 35.528L50.039 38.856C46.8816 43.5066 42.2097 45.832 36.023 45.832C30.8176 45.832 26.615 44.2533 23.415 41.096C20.215 37.896 18.615 33.864 18.615 29C18.615 24.2213 20.1936 20.232 23.351 17.032C26.5083 13.7893 30.5616 12.168 35.511 12.168C40.2043 12.168 44.0443 13.8106 47.031 17.096C50.0603 20.3813 51.575 24.3706 51.575 29.064C51.575 29.7893 51.4896 30.7493 51.319 31.944H25.847ZM25.783 26.312H44.599C44.1297 23.7093 43.0417 21.7466 41.335 20.424C39.671 19.1013 37.7083 18.44 35.447 18.44C32.887 18.44 30.7537 19.144 29.047 20.552C27.3403 21.96 26.2523 23.88 25.783 26.312Z" fill="#141414"/>
<path d="M82.8135 13H89.7255V45H82.8135V40.392C80.2108 44.0186 76.4775 45.832 71.6135 45.832C67.2188 45.832 63.4642 44.2106 60.3495 40.968C57.2348 37.6826 55.6775 33.6933 55.6775 29C55.6775 24.264 57.2348 20.2746 60.3495 17.032C63.4642 13.7893 67.2188 12.168 71.6135 12.168C76.4775 12.168 80.2108 13.96 82.8135 17.544V13ZM65.4695 36.36C67.3895 38.28 69.8002 39.24 72.7015 39.24C75.6028 39.24 78.0135 38.28 79.9335 36.36C81.8535 34.3973 82.8135 31.944 82.8135 29C82.8135 26.056 81.8535 23.624 79.9335 21.704C78.0135 19.7413 75.6028 18.76 72.7015 18.76C69.8002 18.76 67.3895 19.7413 65.4695 21.704C63.5495 23.624 62.5895 26.056 62.5895 29C62.5895 31.944 63.5495 34.3973 65.4695 36.36Z" fill="#141414"/>
<path d="M112.886 45.832C108.065 45.832 104.033 44.2106 100.79 40.968C97.59 37.7253 95.99 33.736 95.99 29C95.99 24.2213 97.59 20.232 100.79 17.032C104.033 13.7893 108.065 12.168 112.886 12.168C116.001 12.168 118.838 12.9146 121.398 14.408C123.958 15.9013 125.878 17.9066 127.158 20.424L121.206 23.88C120.481 22.344 119.371 21.1493 117.878 20.296C116.427 19.4 114.742 18.952 112.822 18.952C110.006 18.952 107.638 19.912 105.718 21.832C103.841 23.752 102.902 26.1413 102.902 29C102.902 31.8586 103.841 34.248 105.718 36.168C107.638 38.088 110.006 39.048 112.822 39.048C114.699 39.048 116.385 38.6 117.878 37.704C119.414 36.808 120.566 35.6133 121.334 34.12L127.286 37.512C125.921 40.072 123.958 42.0986 121.398 43.592C118.838 45.0853 116.001 45.832 112.886 45.832Z" fill="#141414"/>
<path d="M150.138 19.656H142.202V35.016C142.202 36.3386 142.501 37.2986 143.098 37.896C143.695 38.4506 144.57 38.7706 145.722 38.856C146.917 38.8986 148.389 38.8773 150.138 38.792V45C144.847 45.64 141.05 45.192 138.746 43.656C136.442 42.0773 135.29 39.1973 135.29 35.016V19.656H129.402V13H135.29V6.08795L142.202 4.03995V13H150.138V19.656Z" fill="#141414"/>
<path d="M173.239 12.168C176.908 12.168 179.874 13.3413 182.135 15.688C184.396 18.0346 185.527 21.256 185.527 25.352V45H178.615V26.056C178.615 23.6666 177.975 21.832 176.695 20.552C175.415 19.272 173.666 18.632 171.447 18.632C169.015 18.632 167.052 19.4 165.559 20.936C164.066 22.4293 163.319 24.7333 163.319 27.848V45H156.407V0.199951H163.319V17.096C165.41 13.8106 168.716 12.168 173.239 12.168Z" fill="#141414"/>
<path d="M198.409 31.944C198.921 34.376 200.095 36.2533 201.929 37.576C203.764 38.856 206.004 39.496 208.649 39.496C212.319 39.496 215.071 38.1733 216.905 35.528L222.601 38.856C219.444 43.5066 214.772 45.832 208.585 45.832C203.38 45.832 199.177 44.2533 195.977 41.096C192.777 37.896 191.177 33.864 191.177 29C191.177 24.2213 192.756 20.232 195.913 17.032C199.071 13.7893 203.124 12.168 208.073 12.168C212.767 12.168 216.607 13.8106 219.593 17.096C222.623 20.3813 224.137 24.3706 224.137 29.064C224.137 29.7893 224.052 30.7493 223.881 31.944H198.409ZM198.345 26.312H217.161C216.692 23.7093 215.604 21.7466 213.897 20.424C212.233 19.1013 210.271 18.44 208.009 18.44C205.449 18.44 203.316 19.144 201.609 20.552C199.903 21.96 198.815 23.88 198.345 26.312Z" fill="#141414"/>
<path d="M237.131 18.376C238.881 14.408 242.166 12.424 246.987 12.424V19.912C244.342 19.7413 242.038 20.3813 240.075 21.832C238.113 23.24 237.131 25.5866 237.131 28.872V45H230.219V13H237.131V18.376Z" fill="#141414"/>
<path d="M265.698 45.832C261.005 45.832 257.016 44.2106 253.73 40.968C250.445 37.7253 248.802 33.736 248.802 29C248.802 24.264 250.445 20.2746 253.73 17.032C257.016 13.7893 261.005 12.168 265.698 12.168C270.434 12.168 274.424 13.7893 277.666 17.032C280.952 20.2746 282.594 24.264 282.594 29C282.594 33.736 280.952 37.7253 277.666 40.968C274.424 44.2106 270.434 45.832 265.698 45.832ZM258.594 36.232C260.514 38.152 262.882 39.112 265.698 39.112C268.514 39.112 270.882 38.152 272.802 36.232C274.722 34.312 275.682 31.9013 275.682 29C275.682 26.0986 274.722 23.688 272.802 21.768C270.882 19.848 268.514 18.888 265.698 18.888C262.882 18.888 260.514 19.848 258.594 21.768C256.674 23.688 255.714 26.0986 255.714 29C255.714 31.9013 256.674 34.312 258.594 36.232Z" fill="#141414"/>
<path d="M293.834 44.36C292.895 45.2986 291.765 45.768 290.442 45.768C289.119 45.768 287.989 45.2986 287.05 44.36C286.111 43.4213 285.642 42.2906 285.642 40.968C285.642 39.6453 286.09 38.5146 286.986 37.576C287.925 36.6373 289.077 36.168 290.442 36.168C291.765 36.168 292.895 36.6373 293.834 37.576C294.773 38.5146 295.242 39.6453 295.242 40.968C295.242 42.2906 294.773 43.4213 293.834 44.36Z" fill="#141414"/>
<path d="M18.144 76.168C22.5387 76.168 26.2933 77.7893 29.408 81.032C32.5227 84.2746 34.08 88.264 34.08 93C34.08 97.6933 32.5227 101.683 29.408 104.968C26.2933 108.211 22.5387 109.832 18.144 109.832C13.28 109.832 9.54665 108.019 6.94398 104.392V109H0.0319824V64.2H6.94398V81.544C9.54665 77.96 13.28 76.168 18.144 76.168ZM9.82398 100.36C11.744 102.28 14.1547 103.24 17.056 103.24C19.9573 103.24 22.368 102.28 24.288 100.36C26.208 98.3973 27.168 95.944 27.168 93C27.168 90.056 26.208 87.6239 24.288 85.7039C22.368 83.7413 19.9573 82.7599 17.056 82.7599C14.1547 82.7599 11.744 83.7413 9.82398 85.7039C7.90398 87.6239 6.94398 90.056 6.94398 93C6.94398 95.944 7.90398 98.3973 9.82398 100.36Z" fill="#141414"/>
<path d="M40.3445 109V62.28H47.2565V109H40.3445Z" fill="#141414"/>
<path d="M70.386 109.832C65.6927 109.832 61.7033 108.211 58.418 104.968C55.1327 101.725 53.49 97.736 53.49 93C53.49 88.264 55.1327 84.2746 58.418 81.032C61.7033 77.7893 65.6927 76.168 70.386 76.168C75.122 76.168 79.1113 77.7893 82.354 81.032C85.6393 84.2746 87.282 88.264 87.282 93C87.282 97.736 85.6393 101.725 82.354 104.968C79.1113 108.211 75.122 109.832 70.386 109.832ZM63.282 100.232C65.202 102.152 67.57 103.112 70.386 103.112C73.202 103.112 75.57 102.152 77.49 100.232C79.41 98.312 80.37 95.9013 80.37 93C80.37 90.0986 79.41 87.688 77.49 85.768C75.57 83.848 73.202 82.888 70.386 82.888C67.57 82.888 65.202 83.848 63.282 85.768C61.362 87.688 60.402 90.0986 60.402 93C60.402 95.9013 61.362 98.312 63.282 100.232Z" fill="#141414"/>
<path d="M119.004 77H125.788V107.528C125.788 112.392 124.188 116.125 120.988 118.728C117.788 121.331 113.905 122.632 109.34 122.632C101.959 122.632 96.9026 120.051 94.172 114.888L100.124 111.432C101.788 114.717 104.903 116.36 109.468 116.36C112.455 116.36 114.78 115.571 116.444 113.992C118.151 112.456 119.004 110.301 119.004 107.528V103.624C116.401 107.336 112.689 109.192 107.868 109.192C103.345 109.192 99.5266 107.592 96.412 104.392C93.2973 101.149 91.74 97.2453 91.74 92.68C91.74 88.1146 93.2973 84.232 96.412 81.032C99.5266 77.7893 103.345 76.168 107.868 76.168C112.689 76.168 116.401 78.024 119.004 81.736V77ZM101.532 99.848C103.495 101.768 105.927 102.728 108.828 102.728C111.729 102.728 114.14 101.768 116.06 99.848C118.023 97.928 119.004 95.5386 119.004 92.68C119.004 89.8213 118.023 87.432 116.06 85.512C114.14 83.592 111.729 82.632 108.828 82.632C105.927 82.632 103.495 83.592 101.532 85.512C99.612 87.432 98.652 89.8213 98.652 92.68C98.652 95.5386 99.612 97.928 101.532 99.848Z" fill="#141414"/>
</svg>
