<svg width="1184" height="35" viewBox="0 0 1184 35" fill="none" xmlns="http://www.w3.org/2000/svg">
<path d="M0 1.36271C0 0.712175 0.527195 0.184814 1.17752 0.184814H590.822C591.473 0.184814 592 0.712175 592 1.36271V18.4421H0V1.36271Z" fill="url(#paint0_linear_755_879)"/>
<path d="M1183.71 1.36271C1183.71 0.712175 1183.18 0.184814 1182.53 0.184814H592.883C592.233 0.184814 591.706 0.712175 591.706 1.36271V18.4421H1183.71V1.36271Z" fill="url(#paint1_linear_755_879)"/>
<path d="M521.054 13.1416H662.946C670.425 13.1416 676.487 7.34065 676.487 0.184814H507.513C507.513 7.34065 513.575 13.1416 521.054 13.1416Z" fill="#ABAEB0"/>
<path d="M520.465 13.1416H662.357C669.836 13.1416 675.898 7.34065 675.898 0.184814H506.924C506.924 7.34065 512.987 13.1416 520.465 13.1416Z" fill="url(#paint2_linear_755_879)"/>
<path fill-rule="evenodd" clip-rule="evenodd" d="M591.117 18.4421H0C0 18.4421 25.9055 34.9326 110.982 34.9326H591.117H592.294H1073.02C1158.09 34.9326 1184 18.4421 1184 18.4421H592.294H591.117Z" fill="url(#paint3_linear_755_879)"/>
<defs>
<linearGradient id="paint0_linear_755_879" x1="-1.01873e-06" y1="9.60713" x2="592" y2="9.6071" gradientUnits="userSpaceOnUse">
<stop stop-color="#717576"/>
<stop offset="0.016907" stop-color="#9C9FA1"/>
<stop offset="0.0353058" stop-color="#9C9FA1"/>
<stop offset="0.0571855" stop-color="#797E82"/>
<stop offset="0.0979612" stop-color="#797E82"/>
<stop offset="0.151169" stop-color="#B2B5B7"/>
<stop offset="0.756906" stop-color="#CACDCF"/>
<stop offset="1" stop-color="#CACDCF"/>
</linearGradient>
<linearGradient id="paint1_linear_755_879" x1="1183.71" y1="9.60713" x2="591.706" y2="9.6071" gradientUnits="userSpaceOnUse">
<stop stop-color="#717576"/>
<stop offset="0.016907" stop-color="#9C9FA1"/>
<stop offset="0.0353058" stop-color="#9C9FA1"/>
<stop offset="0.0571855" stop-color="#797E82"/>
<stop offset="0.0979612" stop-color="#797E82"/>
<stop offset="0.151169" stop-color="#B2B5B7"/>
<stop offset="0.756906" stop-color="#CACDCF"/>
<stop offset="1" stop-color="#CACDCF"/>
</linearGradient>
<linearGradient id="paint2_linear_755_879" x1="506.924" y1="6.66322" x2="675.898" y2="6.66322" gradientUnits="userSpaceOnUse">
<stop stop-opacity="0.5"/>
<stop offset="0.139373" stop-color="#818487" stop-opacity="0"/>
<stop offset="0.860627" stop-color="#818487" stop-opacity="0"/>
<stop offset="1" stop-opacity="0.5"/>
</linearGradient>
<linearGradient id="paint3_linear_755_879" x1="592" y1="18.4421" x2="592" y2="34.9326" gradientUnits="userSpaceOnUse">
<stop stop-color="#838688"/>
<stop offset="1" stop-color="#17191B"/>
</linearGradient>
</defs>
</svg>
